<mxfile host="app.diagrams.net" modified="2024-06-17T11:12:32.306Z" agent="Mozilla/5.0 (Windows NT 10.0; Win64; x64) AppleWebKit/537.36 (KHTML, like Gecko) Chrome/125.0.0.0 Safari/537.36" etag="gD2iorfgM1L75CJtxqmL" version="24.5.4" type="github">
  <diagram name="PÃ¡gina-1" id="i6-o3eZlSZMqYIq5NerQ">
    <mxGraphModel dx="1434" dy="790" grid="1" gridSize="10" guides="1" tooltips="1" connect="1" arrows="1" fold="1" page="1" pageScale="1" pageWidth="827" pageHeight="1169" math="0" shadow="0">
      <root>
        <mxCell id="0" />
        <mxCell id="1" parent="0" />
        <mxCell id="W529z3Sd9WjpZF1fsKg6-3" style="edgeStyle=orthogonalEdgeStyle;rounded=0;orthogonalLoop=1;jettySize=auto;html=1;" edge="1" parent="1" source="W529z3Sd9WjpZF1fsKg6-1" target="W529z3Sd9WjpZF1fsKg6-2">
          <mxGeometry relative="1" as="geometry" />
        </mxCell>
        <mxCell id="W529z3Sd9WjpZF1fsKg6-1" value="Cliente" style="shape=umlActor;verticalLabelPosition=bottom;verticalAlign=top;html=1;outlineConnect=0;" vertex="1" parent="1">
          <mxGeometry x="60" y="120" width="30" height="60" as="geometry" />
        </mxCell>
        <mxCell id="W529z3Sd9WjpZF1fsKg6-4" style="edgeStyle=orthogonalEdgeStyle;rounded=0;orthogonalLoop=1;jettySize=auto;html=1;" edge="1" parent="1" source="W529z3Sd9WjpZF1fsKg6-2">
          <mxGeometry relative="1" as="geometry">
            <mxPoint x="340" y="340" as="targetPoint" />
          </mxGeometry>
        </mxCell>
        <mxCell id="W529z3Sd9WjpZF1fsKg6-2" value="Solicita numero" style="ellipse;whiteSpace=wrap;html=1;" vertex="1" parent="1">
          <mxGeometry x="280" y="110" width="120" height="80" as="geometry" />
        </mxCell>
        <mxCell id="W529z3Sd9WjpZF1fsKg6-6" value="gera um numero" style="shape=parallelogram;perimeter=parallelogramPerimeter;whiteSpace=wrap;html=1;fixedSize=1;" vertex="1" parent="1">
          <mxGeometry x="280" y="340" width="120" height="60" as="geometry" />
        </mxCell>
        <mxCell id="W529z3Sd9WjpZF1fsKg6-12" style="edgeStyle=orthogonalEdgeStyle;rounded=0;orthogonalLoop=1;jettySize=auto;html=1;" edge="1" parent="1" source="W529z3Sd9WjpZF1fsKg6-7" target="W529z3Sd9WjpZF1fsKg6-11">
          <mxGeometry relative="1" as="geometry" />
        </mxCell>
        <mxCell id="W529z3Sd9WjpZF1fsKg6-7" value="Funcionario" style="shape=umlActor;verticalLabelPosition=bottom;verticalAlign=top;html=1;outlineConnect=0;" vertex="1" parent="1">
          <mxGeometry x="100" y="580" width="30" height="60" as="geometry" />
        </mxCell>
        <mxCell id="W529z3Sd9WjpZF1fsKg6-11" value="Recebe numero" style="shape=parallelogram;perimeter=parallelogramPerimeter;whiteSpace=wrap;html=1;fixedSize=1;" vertex="1" parent="1">
          <mxGeometry x="220" y="590" width="120" height="60" as="geometry" />
        </mxCell>
      </root>
    </mxGraphModel>
  </diagram>
</mxfile>
